#!OML:ASF H:\MichaelJackson\Top Level 1\Subject 1\Session 1\male.ASF
:FULLY-SPECIFIED
:DEGREES
1
root 5.22997 16.9002 -33.8986 10.4956 9.80979 -5.40289
lowerback -1.96744 2.16762 2.86057
upperback -0.0214292 2.79567 3.53972
thorax 1.0403 1.40729 2.11069
lowerneck -4.54063 -1.4134 -2.25604
upperneck -5.91517 -1.85657 -1.73277
head -1.05824 -0.860136 -0.167347
rclavicle 1.82882e-014 -1.27222e-014
rhumerus -34.2246 8.46149 -90.9324
rradius 33.3522
rwrist 18.8715
rhand -23.76 -18.8414
rfingers 7.12502
rthumb 2.70914 -48.804
lclavicle 1.82882e-014 -1.27222e-014
lhumerus -50.7767 -37.2093 111.006
lradius 95.8333
lwrist 34.4893
lhand 6.39696 19.1342
lfingers 7.12502
lthumb 31.7015 46.3996
rfemur -23.8001 -6.82031 26.1204
rtibia 32.1416
rfoot -17.2209 -15.3458
rtoes 42.3597
lfemur -29.1417 8.80882 -8.55829
ltibia 48.2108
lfoot -14.3949 13.0925
ltoes -8.55273
2
root 5.22294 16.943 -33.8367 9.97637 9.2322 -4.99119
lowerback -2.07726 2.2249 2.81053
upperback 0.39125 2.84914 3.36545
thorax 1.53152 1.43652 1.97786
lowerneck -4.5012 -1.54317 -2.37028
upperneck -6.28917 -2.03114 -1.62805
head -1.17899 -0.940084 -0.115591
rclavicle 4.21423e-014 1.03368e-014
rhumerus -34.1477 8.64404 -90.8741
rradius 33.5452
rwrist 18.8102
rhand -23.8598 -18.8489
rfingers 7.12502
rthumb 2.61274 -48.8127
lclavicle 4.21423e-014 1.03368e-014
lhumerus -50.1207 -36.4994 110.481
lradius 93.8908
lwrist 32.7372
lhand 4.65206 19.3107
lfingers 7.12502
lthumb 30.038 46.891
rfemur -22.3511 -7.79617 25.6647
rtibia 30.9997
rfoot -16.1247 -14.644
rtoes 40.8532
lfemur -28.5292 9.13846 -9.14863
ltibia 48.8573
lfoot -13.5791 13.6287
ltoes -4.64215
3
root 5.18224 16.9422 -33.8015 9.12886 8.34146 -5.66616
lowerback -1.50365 2.42445 3.30341
upperback 0.737539 3.11575 3.57897
thorax 1.57717 1.57462 1.91596
lowerneck -4.58906 -1.65927 -2.42089
upperneck -6.53484 -2.18605 -1.61025
head -1.24035 -1.01325 -0.102027
rclavicle -5.6753e-014 -4.29375e-014
rhumerus -34.1981 8.72087 -90.8307
rradius 33.7856
rwrist 18.9711
rhand -23.8069 -18.9069
rfingers 7.12502
rthumb 2.66385 -48.87
lclavicle -5.6753e-014 -4.29375e-014
lhumerus -49.4164 -35.729 109.959
lradius 91.8544
lwrist 30.9215
lhand 3.01411 18.2516
lfingers 7.12502
lthumb 28.474 46.1046
rfemur -21.1911 -6.47002 26.3441
rtibia 30.57
rfoot -16.8455 -14.5746
rtoes 43.3064
lfemur -28.1011 10.0116 -8.33525
ltibia 49.928
lfoot -12.9456 13.9445
ltoes -2.42163
4
root 5.15949 16.9561 -33.8141 9.50214 8.90163 -5.07068
lowerback -1.4781 2.15519 3.0473
upperback 0.600711 2.77167 3.43206
thorax 1.41974 1.39948 1.89168
lowerneck -4.40034 -1.78187 -2.46152
upperneck -6.91637 -2.36427 -1.62364
head -1.39138 -1.0943 -0.0961064
rclavicle -1.2921e-014 -9.54166e-015
rhumerus -33.9025 9.08551 -90.7034
rradius 33.6921
rwrist 18.6863
rhand -23.8792 -18.9782
rfingers 7.12502
rthumb 2.59404 -48.9421
lclavicle -1.2921e-014 -9.54166e-015
lhumerus -48.7521 -34.9796 109.561
lradius 89.6357
lwrist 29.0119
lhand 1.62554 17.8267
lfingers 7.12502
lthumb 27.1464 45.8943
rfemur -21.3367 -7.5901 25.9185
rtibia 30.092
rfoot -15.916 -14.6632
rtoes 41.3762
lfemur -29.3269 9.51047 -9.25388
ltibia 50.895
lfoot -12.191 14.5166
ltoes 1.89752
5
root 5.12663 16.9585 -33.8132 9.22951 8.63377 -5.2888
lowerback -1.29733 2.21193 3.1568
upperback 0.830276 2.84262 3.58178
thorax 1.55155 1.43685 1.98559
lowerneck -4.28011 -1.8699 -2.52254
upperneck -7.3859 -2.49384 -1.60567
head -1.55951 -1.14952 -0.0768349
rclavicle 3.90612e-014 -4.13472e-014
rhumerus -33.5758 9.10651 -90.3961
rradius 33.7462
rwrist 18.6165
rhand -23.9022 -19.1398
rfingers 7.12502
rthumb 2.57176 -49.104
lclavicle 3.90612e-014 -4.13472e-014
lhumerus -47.6448 -34.8174 109.193
lradius 87.3872
lwrist 27.5893
lhand 0.087384 18.7814
lfingers 7.12502
lthumb 25.6741 47.0701
rfemur -20.9348 -7.01275 26.2072
rtibia 29.7921
rfoot -16.0128 -14.9126
rtoes 41.6932
lfemur -29.7208 9.78424 -9.22561
ltibia 51.9195
lfoot -12.3569 14.5836
ltoes 6.78786
6
root 5.0978 16.9634 -33.8059 9.02411 8.45082 -5.2977
lowerback -1.08416 2.19777 3.19651
upperback 0.967971 2.82775 3.631
thorax 1.57317 1.43013 2.00838
lowerneck -4.18916 -1.95912 -2.57838
upperneck -7.73908 -2.62198 -1.58544
head -1.68662 -1.20617 -0.0582188
rclavicle -3.03147e-014 8.74653e-015
rhumerus -33.3824 9.23564 -90.2119
rradius 33.8088
rwrist 18.5285
rhand -23.9388 -19.2297
rfingers 7.12502
rthumb 2.53649 -49.1944
lclavicle -3.03147e-014 8.74653e-015
lhumerus -46.8667 -34.2475 108.813
lradius 85.282
lwrist 25.9002
lhand -1.45362 19.1198
lfingers 7.12502
lthumb 24.1973 47.6133
rfemur -20.6035 -6.84133 26.2877
rtibia 29.6268
rfoot -16.0374 -14.9299
rtoes 41.8007
lfemur -30.1034 9.93019 -9.39392
ltibia 52.8493
lfoot -12.1631 14.6185
ltoes 10.3067
7
root 5.06891 16.967 -33.8009 8.84599 8.28118 -5.31365
lowerback -0.854692 2.17549 3.22332
upperback 1.07408 2.80489 3.68675
thorax 1.55228 1.41895 2.04327
lowerneck -4.09422 -2.03196 -2.63317
upperneck -8.05877 -2.72792 -1.56445
head -1.80441 -1.2522 -0.0393728
rclavicle 6.91771e-014 2.38542e-014
rhumerus -33.2055 9.34942 -90.0226
rradius 33.8587
rwrist 18.4373
rhand -23.9679 -19.301
rfingers 7.12502
rthumb 2.50832 -49.266
lclavicle 6.91771e-014 2.38542e-014
lhumerus -46.1503 -33.6312 108.467
lradius 83.2241
lwrist 24.2357
lhand -2.9832 19.5617
lfingers 7.12502
lthumb 22.7301 48.2428
rfemur -20.2876 -6.57788 26.3764
rtibia 29.4085
rfoot -16.0815 -15.0264
rtoes 41.9969
lfemur -30.4881 10.0361 -9.57062
ltibia 53.6812
lfoot -12.0651 14.382
ltoes 13.0251
8
root 5.04235 16.9705 -33.7947 8.70939 8.10939 -5.28605
lowerback -0.655588 2.14525 3.2205
upperback 1.14986 2.77189 3.72447
thorax 1.51682 1.40226 2.07645
lowerneck -3.99533 -2.08689 -2.69202
upperneck -8.33563 -2.80875 -1.53453
head -1.90952 -1.28638 -0.0170761
rclavicle 8.94531e-015 7.15625e-015
rhumerus -33.0547 9.45547 -89.8408
rradius 33.8925
rwrist 18.3464
rhand -24.0078 -19.3577
rfingers 7.12502
rthumb 2.46987 -49.3232
lclavicle 8.94531e-015 7.15625e-015
lhumerus -45.5216 -32.946 108.152
lradius 81.2351
lwrist 22.6042
lhand -4.63351 19.7071
lfingers 7.12502
lthumb 21.1455 48.5739
rfemur -20.027 -6.32419 26.413
rtibia 29.24
rfoot -16.1295 -15.123
rtoes 42.0898
lfemur -30.8438 10.0859 -9.81722
ltibia 54.3936
lfoot -12.0624 13.8278
ltoes 14.8147
9
root 5.01797 16.9735 -33.7845 8.57555 7.87554 -5.25997
lowerback -0.482478 2.12562 3.21939
upperback 1.21153 2.75225 3.75468
thorax 1.48178 1.39222 2.10206
lowerneck -3.9091 -2.12504 -2.75287
upperneck -8.55622 -2.86525 -1.49973
head -1.99459 -1.30943 0.00667158
rclavicle -3.10104e-014 1.59028e-015
rhumerus -32.9461 9.54589 -89.6732
rradius 33.9197
rwrist 18.2795
rhand -24.0512 -19.4016
rfingers 7.12502
rthumb 2.42791 -49.3675
lclavicle -3.10104e-014 1.59028e-015
lhumerus -44.9807 -32.1831 107.856
lradius 79.3193
lwrist 21.0179
lhand -6.2972 19.6402
lfingers 7.12502
lthumb 19.5466 48.6776
rfemur -19.7694 -5.99842 26.4361
rtibia 29.1088
rfoot -16.2214 -15.2149
rtoes 42.2015
lfemur -31.102 10.1321 -10.0709
ltibia 54.9684
lfoot -12.1497 12.9212
ltoes 15.4396
10
root 4.99621 16.9763 -33.7711 8.4809 7.62581 -5.19849
lowerback -0.363229 2.10289 3.19888
upperback 1.24718 2.72704 3.76629
thorax 1.45027 1.37919 2.12088
lowerneck -3.83381 -2.15065 -2.81148
upperneck -8.72323 -2.90368 -1.46738
head -2.0607 -1.32445 0.0288444
rclavicle -4.96962e-015 -1.59028e-014
rhumerus -32.8602 9.63435 -89.5204
rradius 33.922
rwrist 18.2202
rhand -24.1048 -19.4376
rfingers 7.12502
rthumb 2.37612 -49.4042
lclavicle -4.96962e-015 -1.59028e-014
lhumerus -44.5128 -31.3531 107.574
lradius 77.4516
lwrist 19.4871
lhand -7.93897 19.2812
lfingers 7.12502
lthumb 17.9676 48.4713
rfemur -19.5496 -5.66832 26.4131
rtibia 29.0122
rfoot -16.2995 -15.326
rtoes 42.1316
lfemur -31.3079 10.1271 -10.3773
ltibia 55.3921
lfoot -12.2732 11.691
ltoes 15.1958
11
root 4.97717 16.9789 -33.7542 8.42653 7.3625 -5.10386
lowerback -0.279867 2.07506 3.1664
upperback 1.24435 2.69508 3.75902
thorax 1.39976 1.36251 2.12729
lowerneck -3.76669 -2.16424 -2.87399
upperneck -8.83015 -2.92445 -1.4358
head -2.10595 -1.33161 0.0508922
rclavicle -3.57812e-014 -1.90833e-014
rhumerus -32.8213 9.71698 -89.3864
rradius 33.9107
rwrist 18.18
rhand -24.1645 -19.4703
rfingers 7.12502
rthumb 2.31852 -49.4375
lclavicle -3.57812e-014 -1.90833e-014
lhumerus -44.1334 -30.422 107.304
lradius 75.6284
lwrist 17.9899
lhand -9.52357 18.5688
lfingers 7.12502
lthumb 16.4424 47.892
rfemur -19.4323 -5.33874 26.3456
rtibia 29.0856
rfoot -16.4316 -15.4268
rtoes 41.8865
lfemur -31.4899 10.0702 -10.7359
ltibia 55.7286
lfoot -12.5315 10.1157
ltoes 14.147
